<svg width="40" height="40" viewBox="0 0 40 40" fill="none" xmlns="http://www.w3.org/2000/svg">
<path opacity="0.12" d="M23.0586 21.1924C21.9567 21.9638 21.4057 22.3494 20.8064 22.4988C20.277 22.6308 19.7233 22.6308 19.1939 22.4988C18.5946 22.3494 18.0436 21.9638 16.9417 21.1924L3.3335 11.6667C3.3335 8.90523 5.57207 6.66666 8.3335 6.66666H31.6668C34.4283 6.66666 36.6668 8.90523 36.6668 11.6667L23.0586 21.1924Z" fill="white"/>
<path d="M35.8334 30L24.7621 20M15.2383 20L4.16689 30M3.3335 11.6667L16.9417 21.1924C18.0436 21.9638 18.5946 22.3494 19.1939 22.4988C19.7233 22.6308 20.277 22.6308 20.8064 22.4988C21.4057 22.3494 21.9567 21.9638 23.0586 21.1924L36.6668 11.6667M11.3335 33.3333H28.6668C31.4671 33.3333 32.8672 33.3333 33.9368 32.7884C34.8776 32.309 35.6425 31.5441 36.1219 30.6033C36.6668 29.5337 36.6668 28.1336 36.6668 25.3333V14.6667C36.6668 11.8664 36.6668 10.4663 36.1219 9.3967C35.6425 8.45589 34.8776 7.69099 33.9368 7.21162C32.8672 6.66666 31.4671 6.66666 28.6668 6.66666H11.3335C8.53323 6.66666 7.1331 6.66666 6.06354 7.21162C5.12273 7.69099 4.35783 8.45589 3.87846 9.3967C3.3335 10.4663 3.3335 11.8664 3.3335 14.6667V25.3333C3.3335 28.1336 3.3335 29.5337 3.87846 30.6033C4.35783 31.5441 5.12273 32.309 6.06354 32.7884C7.1331 33.3333 8.53323 33.3333 11.3335 33.3333Z" stroke="white" stroke-width="3.33333" stroke-linecap="round" stroke-linejoin="round"/>
</svg>
