<svg width="40" height="40" viewBox="0 0 40 40" fill="none" xmlns="http://www.w3.org/2000/svg">
<path opacity="0.12" d="M6.66675 24.6667C6.66675 21.8664 6.66675 20.4663 7.21172 19.3967C7.69108 18.4559 8.45599 17.691 9.3968 17.2116C10.4664 16.6667 11.8665 16.6667 14.6667 16.6667H25.3334C28.1337 16.6667 29.5338 16.6667 30.6034 17.2116C31.5442 17.691 32.3091 18.4559 32.7884 19.3967C33.3334 20.4663 33.3334 21.8664 33.3334 24.6667V27C33.3334 29.8003 33.3334 31.2004 32.7884 32.2699C32.3091 33.2108 31.5442 33.9757 30.6034 34.455C29.5338 35 28.1337 35 25.3334 35H14.6667C11.8665 35 10.4664 35 9.3968 34.455C8.45599 33.9757 7.69108 33.2108 7.21172 32.2699C6.66675 31.2004 6.66675 29.8003 6.66675 27V24.6667Z" fill="white"/>
<path d="M28.3334 16.6667V13.3333C28.3334 8.73096 24.6025 5 20.0001 5C15.3977 5 11.6667 8.73096 11.6667 13.3333V16.6667M20.0001 24.1667V27.5M14.6667 35H25.3334C28.1337 35 29.5338 35 30.6034 34.455C31.5442 33.9757 32.3091 33.2108 32.7884 32.27C33.3334 31.2004 33.3334 29.8003 33.3334 27V24.6667C33.3334 21.8664 33.3334 20.4663 32.7884 19.3967C32.3091 18.4559 31.5442 17.691 30.6034 17.2116C29.5338 16.6667 28.1337 16.6667 25.3334 16.6667H14.6667C11.8665 16.6667 10.4664 16.6667 9.3968 17.2116C8.45599 17.691 7.69108 18.4559 7.21172 19.3967C6.66675 20.4663 6.66675 21.8664 6.66675 24.6667V27C6.66675 29.8003 6.66675 31.2004 7.21172 32.27C7.69108 33.2108 8.45599 33.9757 9.3968 34.455C10.4664 35 11.8665 35 14.6667 35Z" stroke="white" stroke-width="3.33333" stroke-linecap="round" stroke-linejoin="round"/>
</svg>
